<svg xmlns="http://www.w3.org/2000/svg" viewBox="0 0 48 48" fill="none">
  <!-- Acorn cap -->
  <path d="M12 20C12 14 18 10 24 10C30 10 36 14 36 20C36 22 35 23 33 24H15C13 23 12 22 12 20Z" fill="#8B5A2B"/>
  <path d="M14 18C14 14 18 12 24 12C30 12 34 14 34 18" stroke="#6B4423" stroke-width="1.5" stroke-linecap="round"/>
  <!-- Cap pattern -->
  <circle cx="18" cy="17" r="1.5" fill="#6B4423"/>
  <circle cx="24" cy="15" r="1.5" fill="#6B4423"/>
  <circle cx="30" cy="17" r="1.5" fill="#6B4423"/>
  <circle cx="21" cy="20" r="1.5" fill="#6B4423"/>
  <circle cx="27" cy="20" r="1.5" fill="#6B4423"/>
  <!-- Stem -->
  <path d="M24 10V6" stroke="#5D4E37" stroke-width="2" stroke-linecap="round"/>
  <!-- Acorn body -->
  <path d="M15 24C15 24 14 32 18 36C22 40 26 40 30 36C34 32 33 24 33 24H15Z" fill="#D4A574"/>
  <path d="M18 26C18 26 17 32 20 35C23 38 25 38 28 35C31 32 30 26 30 26" stroke="#C4956A" stroke-width="1" stroke-linecap="round"/>
</svg>
